<?xml version="1.0" encoding="utf-8"?>
<!-- Generator: Adobe Illustrator 27.9.0, SVG Export Plug-In . SVG Version: 6.00 Build 0)  -->
<svg version="1.1" id="negro" xmlns="http://www.w3.org/2000/svg" xmlns:xlink="http://www.w3.org/1999/xlink" x="0px" y="0px"
	 viewBox="0 0 170.1 170.1" enable-background="new 0 0 170.1 170.1" xml:space="preserve">
<circle cx="127.6" cy="85" r="14.2"/>
<circle cx="85" cy="127.6" r="14.2"/>
<path fill="#010202" d="M70.9,42.5c0,15.7-12.7,28.3-28.3,28.3c-7.8,0-14.2,6.3-14.2,14.2s6.3,14.2,14.2,14.2
	c31.3,0,56.7-25.4,56.7-56.7c0-7.8-6.3-14.2-14.2-14.2C77.2,28.3,70.9,34.7,70.9,42.5z"/>
<g id="blanco">
	<path fill="#FFFFFF" d="M42.5,70.9c15.7,0,28.3-12.7,28.3-28.3c0,0,0,0,0,0c0-15.7-12.7-28.3-28.3-28.3
		c-15.7,0-28.3,12.7-28.3,28.3C14.2,58.2,26.9,70.9,42.5,70.9L42.5,70.9L42.5,70.9z"/>
	<path fill="#FFFFFF" d="M99.2,42.5C99.2,42.5,99.2,42.5,99.2,42.5c0,31.3-25.4,56.7-56.7,56.7l0,0h0c-15.7,0-28.3,12.7-28.3,28.3
		c0,15.7,12.7,28.3,28.3,28.3c15.7,0,28.3-12.7,28.3-28.3v0l0,0c0-7.8,6.3-14.2,14.2-14.2c7.8,0,14.2,6.3,14.2,14.2l0,0v0
		c0,15.7,12.7,28.3,28.3,28.3c15.7,0,28.3-12.7,28.3-28.3c0-15.7-12.7-28.3-28.3-28.3c-7.8,0-14.2-6.3-14.2-14.2
		c0-1.8,0.3-3.5,0.9-5c0.1-0.4,0.3-0.7,0.5-1.1c0.2-0.4,0.4-0.7,0.6-1.1c0.6-1,1.3-1.9,2.1-2.7c0,0,0.1-0.1,0.1-0.1
		c2.6-2.6,6.1-4.2,10-4.2c0,0,0,0,0,0c15.7,0,28.3-12.7,28.3-28.3c0-15.7-12.7-28.3-28.3-28.3C111.9,14.2,99.2,26.9,99.2,42.5z"/>
</g>
</svg>
