<?xml version="1.0" encoding="utf-8"?>
<!-- Generator: Adobe Illustrator 27.9.0, SVG Export Plug-In . SVG Version: 6.00 Build 0)  -->
<svg version="1.1" id="negro" xmlns="http://www.w3.org/2000/svg" xmlns:xlink="http://www.w3.org/1999/xlink" x="0px" y="0px"
	 viewBox="0 0 170.1 170.1" enable-background="new 0 0 170.1 170.1" xml:space="preserve">
<circle cx="85" cy="127.6" r="14.2"/>
<circle cx="85" cy="42.5" r="14.2"/>
<g id="blanco">
</g>
<path d="M28.3,85c0,7.8,6.3,14.2,14.2,14.2h85c7.8,0,14.2-6.3,14.2-14.2s-6.3-14.2-14.2-14.2h-85C34.7,70.9,28.3,77.2,28.3,85z"/>
<path fill="#FFFFFF" d="M127.6,99.2h-85l0,0h0c-15.7,0-28.3,12.7-28.3,28.3c0,15.7,12.7,28.3,28.3,28.3s28.3-12.7,28.3-28.3
	c0-7.8,6.3-14.2,14.2-14.2h0l0,0c7.8,0,14.2,6.3,14.2,14.2c0,0,0,0,0,0c0,15.7,12.7,28.3,28.3,28.3c15.7,0,28.3-12.7,28.3-28.3
	C155.9,111.9,143.2,99.2,127.6,99.2z"/>
<path fill="#FFFFFF" d="M42.5,70.9L42.5,70.9L42.5,70.9h85c15.7,0,28.3-12.7,28.3-28.3c0-15.7-12.7-28.3-28.3-28.3
	c-15.7,0-28.3,12.7-28.3,28.3c0,0,0,0,0,0c0,7.8-6.3,14.2-14.2,14.2l0,0h0c-3.3,0-6.3-1.1-8.7-3c-0.1-0.1-0.2-0.2-0.4-0.3
	c-3.1-2.6-5.1-6.5-5.1-10.9c0-15.7-12.7-28.3-28.3-28.3S14.2,26.9,14.2,42.5C14.2,58.2,26.9,70.9,42.5,70.9z"/>
</svg>
