<?xml version="1.0" encoding="utf-8"?>
<!-- Generator: Adobe Illustrator 27.9.0, SVG Export Plug-In . SVG Version: 6.00 Build 0)  -->
<svg version="1.1" id="negro" xmlns="http://www.w3.org/2000/svg" xmlns:xlink="http://www.w3.org/1999/xlink" x="0px" y="0px"
	 viewBox="0 0 170.1 170.1" enable-background="new 0 0 170.1 170.1" xml:space="preserve">
<circle cx="85" cy="42.5" r="14.2"/>
<circle cx="127.6" cy="85" r="14.2"/>
<path fill="#010202" d="M42.5,99.2c15.7,0,28.3,12.7,28.3,28.3c0,7.8,6.3,14.2,14.2,14.2s14.2-6.3,14.2-14.2
	c0-31.3-25.4-56.7-56.7-56.7c-7.8,0-14.2,6.3-14.2,14.2C28.3,92.9,34.7,99.2,42.5,99.2z"/>
<g id="blanco">
	<path fill="#FFFFFF" d="M70.9,127.6c0-15.7-12.7-28.3-28.3-28.3c0,0,0,0,0,0c-15.7,0-28.3,12.7-28.3,28.3
		c0,15.7,12.7,28.3,28.3,28.3C58.2,155.9,70.9,143.2,70.9,127.6L70.9,127.6L70.9,127.6z"/>
	<path fill="#FFFFFF" d="M42.5,70.9C42.5,70.9,42.5,70.9,42.5,70.9c31.3,0,56.7,25.4,56.7,56.7l0,0v0c0,15.7,12.7,28.3,28.3,28.3
		c15.7,0,28.3-12.7,28.3-28.3c0-15.7-12.7-28.3-28.3-28.3h0l0,0c-7.8,0-14.2-6.3-14.2-14.2c0-7.8,6.3-14.2,14.2-14.2l0,0h0
		c15.7,0,28.3-12.7,28.3-28.3c0-15.7-12.7-28.3-28.3-28.3c-15.7,0-28.3,12.7-28.3,28.3c0,7.8-6.3,14.2-14.2,14.2
		c-1.8,0-3.5-0.3-5-0.9c-0.4-0.1-0.7-0.3-1.1-0.5c-0.4-0.2-0.7-0.4-1.1-0.6c-1-0.6-1.9-1.3-2.7-2.1c0,0-0.1-0.1-0.1-0.1
		c-2.6-2.6-4.2-6.1-4.2-10c0,0,0,0,0,0c0-15.7-12.7-28.3-28.3-28.3c-15.7,0-28.3,12.7-28.3,28.3C14.2,58.2,26.9,70.9,42.5,70.9z"/>
</g>
</svg>
