<?xml version="1.0" encoding="utf-8"?>
<!-- Generator: Adobe Illustrator 27.9.0, SVG Export Plug-In . SVG Version: 6.00 Build 0)  -->
<svg version="1.1" id="negro" xmlns="http://www.w3.org/2000/svg" xmlns:xlink="http://www.w3.org/1999/xlink" x="0px" y="0px"
	 viewBox="0 0 170.1 170.1" enable-background="new 0 0 170.1 170.1" xml:space="preserve">
<circle cx="85" cy="127.6" r="14.2"/>
<circle cx="42.5" cy="85" r="14.2"/>
<path fill="#010202" d="M127.6,70.9c-15.7,0-28.3-12.7-28.3-28.3c0-7.8-6.3-14.2-14.2-14.2s-14.2,6.3-14.2,14.2
	c0,31.3,25.4,56.7,56.7,56.7c7.8,0,14.2-6.3,14.2-14.2C141.7,77.2,135.4,70.9,127.6,70.9z"/>
<g id="blanco">
	<path fill="#FFFFFF" d="M99.2,42.5c0,15.7,12.7,28.3,28.3,28.3c0,0,0,0,0,0c15.7,0,28.3-12.7,28.3-28.3c0-15.7-12.7-28.3-28.3-28.3
		C111.9,14.2,99.2,26.9,99.2,42.5L99.2,42.5L99.2,42.5z"/>
	<path fill="#FFFFFF" d="M127.6,99.2C127.6,99.2,127.6,99.2,127.6,99.2c-31.3,0-56.7-25.4-56.7-56.7l0,0v0
		c0-15.7-12.7-28.3-28.3-28.3c-15.7,0-28.3,12.7-28.3,28.3c0,15.7,12.7,28.3,28.3,28.3h0l0,0c7.8,0,14.2,6.3,14.2,14.2
		c0,7.8-6.3,14.2-14.2,14.2l0,0h0c-15.7,0-28.3,12.7-28.3,28.3c0,15.7,12.7,28.3,28.3,28.3c15.7,0,28.3-12.7,28.3-28.3
		c0-7.8,6.3-14.2,14.2-14.2c1.8,0,3.5,0.3,5,0.9c0.4,0.1,0.7,0.3,1.1,0.5c0.4,0.2,0.7,0.4,1.1,0.6c1,0.6,1.9,1.3,2.7,2.1
		c0,0,0.1,0.1,0.1,0.1c2.6,2.6,4.2,6.1,4.2,10c0,0,0,0,0,0c0,15.7,12.7,28.3,28.3,28.3c15.7,0,28.3-12.7,28.3-28.3
		C155.9,111.9,143.2,99.2,127.6,99.2z"/>
</g>
</svg>
