<?xml version="1.0" encoding="utf-8"?>
<!-- Generator: Adobe Illustrator 27.9.0, SVG Export Plug-In . SVG Version: 6.00 Build 0)  -->
<svg version="1.1" id="negro" xmlns="http://www.w3.org/2000/svg" xmlns:xlink="http://www.w3.org/1999/xlink" x="0px" y="0px"
	 viewBox="0 0 170.1 170.1" enable-background="new 0 0 170.1 170.1" xml:space="preserve">
<circle cx="42.5" cy="85" r="14.2"/>
<circle cx="127.6" cy="85" r="14.2"/>
<path d="M85,28.3c-7.8,0-14.2,6.3-14.2,14.2v85c0,7.8,6.3,14.2,14.2,14.2s14.2-6.3,14.2-14.2v-85C99.2,34.7,92.9,28.3,85,28.3z"/>
<g id="blanco">
</g>
<path fill="#FFFFFF" d="M99.2,42.5v85l0,0v0c0,15.7,12.7,28.3,28.3,28.3c15.7,0,28.3-12.7,28.3-28.3s-12.7-28.3-28.3-28.3
	c-7.8,0-14.2-6.3-14.2-14.2v0l0,0c0-7.8,6.3-14.2,14.2-14.2c0,0,0,0,0,0c15.7,0,28.3-12.7,28.3-28.3c0-15.7-12.7-28.3-28.3-28.3
	C111.9,14.2,99.2,26.9,99.2,42.5z"/>
<path fill="#FFFFFF" d="M70.9,127.6L70.9,127.6L70.9,127.6v-85c0-15.7-12.7-28.3-28.3-28.3c-15.7,0-28.3,12.7-28.3,28.3
	c0,15.7,12.7,28.3,28.3,28.3c0,0,0,0,0,0c7.8,0,14.2,6.3,14.2,14.2l0,0v0c0,3.3-1.1,6.3-3,8.7c-0.1,0.1-0.2,0.2-0.3,0.4
	c-2.6,3.1-6.5,5.1-10.9,5.1c-15.7,0-28.3,12.7-28.3,28.3s12.7,28.3,28.3,28.3C58.2,155.9,70.9,143.2,70.9,127.6z"/>
</svg>
