<?xml version="1.0" encoding="utf-8"?>
<!-- Generator: Adobe Illustrator 27.9.0, SVG Export Plug-In . SVG Version: 6.00 Build 0)  -->
<svg version="1.1" id="negro" xmlns="http://www.w3.org/2000/svg" xmlns:xlink="http://www.w3.org/1999/xlink" x="0px" y="0px"
	 viewBox="0 0 170.1 170.1" enable-background="new 0 0 170.1 170.1" xml:space="preserve">
<path d="M127.6,70.9H99.2V42.5c0-7.8-6.3-14.2-14.2-14.2s-14.2,6.3-14.2,14.2v28.3H42.5c-7.8,0-14.2,6.3-14.2,14.2
	s6.3,14.2,14.2,14.2h28.3v28.3c0,7.8,6.3,14.2,14.2,14.2s14.2-6.3,14.2-14.2V99.2h28.3c7.8,0,14.2-6.3,14.2-14.2
	S135.4,70.9,127.6,70.9z"/>
<g id="blanco">
	<path fill="#FFFFFF" d="M127.6,70.9L127.6,70.9L127.6,70.9c15.7,0,28.3-12.7,28.3-28.3s-12.7-28.3-28.3-28.3S99.2,26.9,99.2,42.5
		v28.3H127.6z"/>
	<path fill="#FFFFFF" d="M42.5,70.9L42.5,70.9L42.5,70.9h28.3V42.5c0-15.7-12.7-28.3-28.3-28.3S14.2,26.9,14.2,42.5
		S26.9,70.9,42.5,70.9z"/>
	<path fill="#FFFFFF" d="M127.6,99.2L127.6,99.2L127.6,99.2H99.2v28.3c0,15.7,12.7,28.3,28.3,28.3s28.3-12.7,28.3-28.3
		C155.9,111.9,143.2,99.2,127.6,99.2z"/>
	<path fill="#FFFFFF" d="M42.5,99.2L42.5,99.2L42.5,99.2c-15.7,0-28.3,12.7-28.3,28.3c0,15.7,12.7,28.3,28.3,28.3
		s28.3-12.7,28.3-28.3V99.2H42.5z"/>
</g>
</svg>
