<?xml version="1.0" encoding="utf-8"?>
<!-- Generator: Adobe Illustrator 27.9.0, SVG Export Plug-In . SVG Version: 6.00 Build 0)  -->
<svg version="1.1" id="negro" xmlns="http://www.w3.org/2000/svg" xmlns:xlink="http://www.w3.org/1999/xlink" x="0px" y="0px"
	 viewBox="0 0 170.1 170.1" enable-background="new 0 0 170.1 170.1" xml:space="preserve">
<path fill="#010202" d="M70.9,42.5c0,15.7-12.7,28.3-28.3,28.3c-7.8,0-14.2,6.3-14.2,14.2s6.3,14.2,14.2,14.2
	c31.3,0,56.7-25.4,56.7-56.7c0-7.8-6.3-14.2-14.2-14.2C77.2,28.3,70.9,34.7,70.9,42.5z"/>
<path fill="#010202" d="M99.2,127.6c0-15.7,12.7-28.3,28.3-28.3c7.8,0,14.2-6.3,14.2-14.2s-6.3-14.2-14.2-14.2
	c-31.3,0-56.7,25.4-56.7,56.7c0,7.8,6.3,14.2,14.2,14.2C92.9,141.7,99.2,135.4,99.2,127.6z"/>
<g id="blanco">
	<circle fill="#FFFFFF" cx="42.5" cy="127.6" r="28.3"/>
	<circle fill="#FFFFFF" cx="42.5" cy="42.5" r="28.3"/>
	<circle fill="#FFFFFF" cx="127.6" cy="127.6" r="28.3"/>
	<circle fill="#FFFFFF" cx="127.6" cy="42.5" r="28.3"/>
	<path fill="#FFFFFF" d="M99.2,42.5c0,31.3-25.4,56.7-56.7,56.7c-15.7,0-28.3,12.7-28.3,28.3c0,15.7,12.7,28.3,28.3,28.3
		c15.7,0,28.3-12.7,28.3-28.3c0,0,0,0,0,0c0-31.3,25.4-56.7,56.7-56.7c0,0,0,0,0,0c15.7,0,28.3-12.7,28.3-28.3
		c0-15.7-12.7-28.3-28.3-28.3C111.9,14.2,99.2,26.9,99.2,42.5z"/>
</g>
</svg>
