<?xml version="1.0" encoding="utf-8"?>
<!-- Generator: Adobe Illustrator 27.9.0, SVG Export Plug-In . SVG Version: 6.00 Build 0)  -->
<svg version="1.1" id="negro" xmlns="http://www.w3.org/2000/svg" xmlns:xlink="http://www.w3.org/1999/xlink" x="0px" y="0px"
	 viewBox="0 0 170.1 170.1" enable-background="new 0 0 170.1 170.1" xml:space="preserve">
<path d="M140.6,79.5c-0.9-2.1-2.3-4-4-5.4c-1.4-1.2-3-2-4.8-2.6c-1.3-0.4-2.7-0.6-4.2-0.6c-15.7,0-28.3-12.7-28.3-28.3c0,0,0,0,0,0
	c0-7.8-6.3-14.2-14.2-14.2h0l0,0c-7.8,0-14.2,6.3-14.2,14.2c0,0,0,0,0,0c0,15.7-12.7,28.3-28.3,28.3c-7.8,0-14.2,6.3-14.2,14.2
	c0,2,0.4,3.8,1.1,5.5c0.9,2.1,2.3,4,4,5.4c1.4,1.2,3,2,4.8,2.6c1.3,0.4,2.7,0.6,4.2,0.6c15.7,0,28.3,12.7,28.3,28.3c0,0,0,0,0,0
	c0,7.8,6.3,14.2,14.2,14.2h0l0,0c7.8,0,14.2-6.3,14.2-14.2c0,0,0,0,0,0c0-15.7,12.7-28.3,28.3-28.3c7.8,0,14.2-6.3,14.2-14.2
	C141.7,83.1,141.3,81.2,140.6,79.5z"/>
<g id="blanco">
	<circle fill="#FFFFFF" cx="42.5" cy="42.5" r="28.3"/>
	<circle fill="#FFFFFF" cx="127.6" cy="42.5" r="28.3"/>
	<circle fill="#FFFFFF" cx="42.5" cy="127.6" r="28.3"/>
	<circle fill="#FFFFFF" cx="127.6" cy="127.6" r="28.3"/>
</g>
</svg>
