<?xml version="1.0" encoding="utf-8"?>
<!-- Generator: Adobe Illustrator 27.9.0, SVG Export Plug-In . SVG Version: 6.00 Build 0)  -->
<svg version="1.1" id="negro" xmlns="http://www.w3.org/2000/svg" xmlns:xlink="http://www.w3.org/1999/xlink" x="0px" y="0px"
	 viewBox="0 0 170.1 170.1" enable-background="new 0 0 170.1 170.1" xml:space="preserve">
<circle cx="127.6" cy="85" r="14.2"/>
<path fill="#010202" d="M99.2,127.6L99.2,127.6L99.2,127.6v-85l0,0v0c0-7.8-6.3-14.2-14.2-14.2c-7.8,0-14.2,6.3-14.2,14.2v0h0v0
	c0,15.7-12.7,28.3-28.3,28.3c-7.8,0-14.2,6.3-14.2,14.2c0,2,0.4,3.8,1.1,5.5c0.9,2.1,2.3,4,4,5.4c1.4,1.2,3,2,4.8,2.6
	c1.3,0.4,2.7,0.6,4.2,0.6c15.7,0,28.3,12.7,28.3,28.3v0h0v0c0,7.8,6.3,14.2,14.2,14.2S99.2,135.4,99.2,127.6z"/>
<g id="blanco">
	<path fill="#FFFFFF" d="M99.2,42.5v85v0c0,15.7,12.7,28.3,28.3,28.3c15.7,0,28.3-12.7,28.3-28.3c0-15.7-12.7-28.3-28.3-28.3
		c-7.8,0-14.2-6.3-14.2-14.2s6.3-14.2,14.2-14.2c15.7,0,28.3-12.7,28.3-28.3c0-15.7-12.7-28.3-28.3-28.3
		C111.9,14.2,99.2,26.9,99.2,42.5z"/>
	<path fill="#FFFFFF" d="M70.9,127.6L70.9,127.6L70.9,127.6L70.9,127.6c0-15.7-12.7-28.3-28.3-28.3c-15.7,0-28.3,12.7-28.3,28.3
		c0,15.7,12.7,28.3,28.3,28.3C58.2,155.9,70.9,143.2,70.9,127.6z"/>
	<path fill="#FFFFFF" d="M70.9,42.5L70.9,42.5L70.9,42.5c0-15.7-12.7-28.3-28.3-28.3c-15.7,0-28.3,12.7-28.3,28.3
		c0,15.7,12.7,28.3,28.3,28.3C58.2,70.9,70.9,58.2,70.9,42.5z"/>
</g>
</svg>
