<?xml version="1.0" encoding="utf-8"?>
<!-- Generator: Adobe Illustrator 27.9.0, SVG Export Plug-In . SVG Version: 6.00 Build 0)  -->
<svg version="1.1" id="negro" xmlns="http://www.w3.org/2000/svg" xmlns:xlink="http://www.w3.org/1999/xlink" x="0px" y="0px"
	 viewBox="0 0 170.1 170.1" enable-background="new 0 0 170.1 170.1" xml:space="preserve">
<circle cx="85" cy="42.5" r="14.2"/>
<path fill="#010202" d="M127.6,70.9L127.6,70.9L127.6,70.9h-85l0,0h0c-7.8,0-14.2,6.3-14.2,14.2c0,7.8,6.3,14.2,14.2,14.2h0v0h0
	c15.7,0,28.3,12.7,28.3,28.3c0,7.8,6.3,14.2,14.2,14.2c2,0,3.8-0.4,5.5-1.1c2.1-0.9,4-2.3,5.4-4c1.2-1.4,2-3,2.6-4.8
	c0.4-1.3,0.6-2.7,0.6-4.2c0-15.7,12.7-28.3,28.3-28.3h0v0h0c7.8,0,14.2-6.3,14.2-14.2S135.4,70.9,127.6,70.9z"/>
<g id="blanco">
	<path fill="#FFFFFF" d="M42.5,70.9h85h0c15.7,0,28.3-12.7,28.3-28.3c0-15.7-12.7-28.3-28.3-28.3c-15.7,0-28.3,12.7-28.3,28.3
		c0,7.8-6.3,14.2-14.2,14.2s-14.2-6.3-14.2-14.2c0-15.7-12.7-28.3-28.3-28.3c-15.7,0-28.3,12.7-28.3,28.3
		C14.2,58.2,26.9,70.9,42.5,70.9z"/>
	<path fill="#FFFFFF" d="M127.6,99.2L127.6,99.2L127.6,99.2L127.6,99.2c-15.7,0-28.3,12.7-28.3,28.3c0,15.7,12.7,28.3,28.3,28.3
		c15.7,0,28.3-12.7,28.3-28.3C155.9,111.9,143.2,99.2,127.6,99.2z"/>
	<path fill="#FFFFFF" d="M42.5,99.2L42.5,99.2L42.5,99.2c-15.7,0-28.3,12.7-28.3,28.3c0,15.7,12.7,28.3,28.3,28.3
		c15.7,0,28.3-12.7,28.3-28.3C70.9,111.9,58.2,99.2,42.5,99.2z"/>
</g>
</svg>
