<?xml version="1.0" encoding="utf-8"?>
<!-- Generator: Adobe Illustrator 27.9.0, SVG Export Plug-In . SVG Version: 6.00 Build 0)  -->
<svg version="1.1" id="negro" xmlns="http://www.w3.org/2000/svg" xmlns:xlink="http://www.w3.org/1999/xlink" x="0px" y="0px"
	 viewBox="0 0 170.1 170.1" enable-background="new 0 0 170.1 170.1" xml:space="preserve">
<circle cx="85" cy="42.5" r="14.2"/>
<circle cx="42.5" cy="85" r="14.2"/>
<circle cx="127.6" cy="85" r="14.2"/>
<circle cx="85" cy="127.6" r="14.2"/>
<g id="blanco">
	<path fill="#FFFFFF" d="M127.6,99.2c-7.8,0-14.2-6.3-14.2-14.2c0-7.8,6.3-14.2,14.2-14.2c15.7,0,28.3-12.7,28.3-28.3
		c0-15.7-12.7-28.3-28.3-28.3c-15.7,0-28.3,12.7-28.3,28.3c0,7.8-6.3,14.2-14.2,14.2c-7.8,0-14.2-6.3-14.2-14.2
		c0-15.7-12.7-28.3-28.3-28.3c-15.7,0-28.3,12.7-28.3,28.3c0,15.7,12.7,28.3,28.3,28.3c7.8,0,14.2,6.3,14.2,14.2
		c0,7.8-6.3,14.2-14.2,14.2c-15.7,0-28.3,12.7-28.3,28.3c0,15.7,12.7,28.3,28.3,28.3c15.7,0,28.3-12.7,28.3-28.3
		c0-7.8,6.3-14.2,14.2-14.2c7.8,0,14.2,6.3,14.2,14.2c0,15.7,12.7,28.3,28.3,28.3c15.7,0,28.3-12.7,28.3-28.3
		C155.9,111.9,143.2,99.2,127.6,99.2z"/>
</g>
</svg>
